<svg data-name="그룹 7318" xmlns="http://www.w3.org/2000/svg" width="38.41" height="38.409" viewBox="0 0 38.41 38.409">
    <defs>
        <clipPath id="iomyvt7mba">
            <path data-name="사각형 339539" style="fill:#ff4713" d="M0 0h38.41v38.409H0z"/>
        </clipPath>
    </defs>
    <g data-name="그룹 7318" style="clip-path:url(#iomyvt7mba)">
        <path data-name="패스 9052" d="M36.693 20.936A17.572 17.572 0 1 1 19.172 1.63q.877 0 1.763.087a17.574 17.574 0 0 1 15.758 19.219M21.1.1A19.2 19.2 0 0 0 4.355 31.381a19.077 19.077 0 0 0 12.959 6.934q.96.1 1.906.094A19.2 19.2 0 0 0 21.1.1" style="fill:#ff4713"/>
        <path data-name="패스 9053" d="M75.747 145.08a5.859 5.859 0 0 1-.78.537l-1.5-2.923a3.087 3.087 0 0 1 3.151 1.491 5.363 5.363 0 0 1-.868.9m-4.754 1.505a3.088 3.088 0 0 1 1.124-3.323l1.509 2.935a8.98 8.98 0 0 1-2.633.388m6.4-3.8a4.537 4.537 0 0 0-7.919 3.711 7.2 7.2 0 0 1-4.058-1.765 6.084 6.084 0 0 1-1.791-4.815l-1.456-.05a7.5 7.5 0 0 0 2.251 5.927 9.124 9.124 0 0 0 6.052 2.245q.221.007.438.007a8.94 8.94 0 0 0 5.753-1.835 7.5 7.5 0 0 0 2.65-5.76l-1.456-.05a7.246 7.246 0 0 1-.464 2.383" transform="translate(-51.638 -116.174)" style="fill:#ff4713"/>
        <path data-name="패스 9054" d="M51.122 64.893c.62 0 1.06.32 1.06.94 0 1.72-2.779 2.019-3.939 2 .3-1.32 1.22-2.94 2.879-2.94m2.259 7.778-.72-1.56a4.763 4.763 0 0 1-2.579.88c-1.7 0-2.16-1.26-2.06-2.54 2.139-.02 6.339-.44 6.339-3.939 0-1.4-1.06-2.339-2.879-2.339-3.639 0-5.859 3.179-5.859 6.638 0 2.319 1.14 4.019 3.879 4.019a6.692 6.692 0 0 0 3.879-1.16" transform="translate(-37.896 -52.474)" style="fill:#ff4713"/>
        <path data-name="패스 9055" d="M133.6 67.832c.3-1.32 1.22-2.94 2.879-2.94.62 0 1.06.32 1.06.94 0 1.719-2.779 2.019-3.939 2m3.239-4.659c-3.639 0-5.859 3.179-5.859 6.638 0 2.32 1.14 4.019 3.879 4.019a6.692 6.692 0 0 0 3.879-1.16l-.72-1.56a4.764 4.764 0 0 1-2.579.88c-1.7 0-2.16-1.26-2.059-2.539 2.139-.02 6.339-.44 6.339-3.939 0-1.4-1.06-2.339-2.879-2.339" transform="translate(-108.792 -52.473)" style="fill:#ff4713"/>
        <path data-name="패스 9056" d="M101.876 66.426a5.331 5.331 0 0 0 2.519-.6l-.3-1.6a3.924 3.924 0 0 1-1.3.34c-.6 0-.88-.2-.9-.82a6.821 6.821 0 0 1 .12-.92l1.5-8.568h-2.382l-1.521 8.608a7.046 7.046 0 0 0-.16 1.44c0 1.3.62 2.119 2.42 2.119" transform="translate(-82.611 -45.069)" style="fill:#ff4713"/>
    </g>
</svg>
