<svg xmlns="http://www.w3.org/2000/svg" width="67" height="67" viewBox="0 0 67 67">
    <defs>
        <clipPath id="hp6fwmjf7a">
            <path data-name="사각형 2272" transform="translate(0 -.187)" style="stroke:#707070;fill:#ff4713" d="M0 0h67v67H0z"/>
        </clipPath>
    </defs>
    <g data-name="마스크 그룹 17" transform="translate(0 .188)" style="clip-path:url(#hp6fwmjf7a)">
        <g data-name="instagram (4)">
            <path data-name="패스 8643" d="M48.746 14.36a17.847 17.847 0 0 0-1.136-5.925 12.512 12.512 0 0 0-7.147-7.146A17.893 17.893 0 0 0 34.538.153C31.924.029 31.094 0 24.462 0S17 .029 14.4.143a17.852 17.852 0 0 0-5.929 1.135A11.917 11.917 0 0 0 4.139 4.1a12.025 12.025 0 0 0-2.815 4.325A17.9 17.9 0 0 0 .189 14.35C.065 16.965.036 17.795.036 24.426s.029 7.461.143 10.066a17.846 17.846 0 0 0 1.136 5.925 12.51 12.51 0 0 0 7.146 7.146 17.9 17.9 0 0 0 5.926 1.137c2.6.115 3.435.143 10.066.143s7.461-.028 10.066-.143a17.843 17.843 0 0 0 5.925-1.135 12.493 12.493 0 0 0 7.147-7.146 17.908 17.908 0 0 0 1.135-5.925c.114-2.6.143-3.435.143-10.066s-.009-7.463-.123-10.068zM44.347 34.3a13.388 13.388 0 0 1-.84 4.532 8.1 8.1 0 0 1-4.637 4.637 13.435 13.435 0 0 1-4.532.839c-2.576.115-3.349.143-9.866.143s-7.3-.028-9.866-.143a13.381 13.381 0 0 1-4.532-.839 7.516 7.516 0 0 1-2.805-1.823 7.594 7.594 0 0 1-1.823-2.805 13.437 13.437 0 0 1-.839-4.532c-.115-2.576-.143-3.349-.143-9.866s.028-7.3.143-9.866a13.381 13.381 0 0 1 .839-4.532 7.424 7.424 0 0 1 1.832-2.803 7.582 7.582 0 0 1 2.805-1.822 13.444 13.444 0 0 1 4.532-.84c2.576-.114 3.349-.143 9.866-.143s7.3.029 9.866.143a13.388 13.388 0 0 1 4.532.84 7.51 7.51 0 0 1 2.805 1.822 7.592 7.592 0 0 1 1.823 2.805 13.442 13.442 0 0 1 .84 4.532c.114 2.576.143 3.349.143 9.866s-.028 7.281-.143 9.855zm0 0" transform="translate(8.973 8.965)" style="fill:#ff4713"/>
            <path data-name="패스 8644" d="M22.555 9.972A12.547 12.547 0 1 0 35.1 22.519 12.55 12.55 0 0 0 22.555 9.972zm0 20.686a8.139 8.139 0 1 1 8.139-8.139 8.14 8.14 0 0 1-8.139 8.139zm0 0" transform="translate(10.881 10.873)" style="fill:#ff4713"/>
            <path data-name="패스 8645" d="M34.889 10.026a2.929 2.929 0 1 1-2.93-2.926 2.929 2.929 0 0 1 2.93 2.926zm0 0" transform="translate(14.519 10.323)" style="fill:#ff4713"/>
        </g>
    </g>
</svg>
