<svg xmlns="http://www.w3.org/2000/svg" width="30" height="30" viewBox="0 0 30 30">
    <defs>
        <clipPath id="homryp7xha">
            <path data-name="사각형 339667" transform="translate(1512 56)" style="stroke:#707070;fill:#ff4713" d="M0 0h30v30H0z"/>
        </clipPath>
        <clipPath id="0fh9u14hsb">
            <path data-name="사각형 339666" style="fill:#ff4713" d="M0 0h24.756v24.777H0z"/>
        </clipPath>
    </defs>
    <g data-name="마스크 그룹 95" transform="translate(-1512 -56)" style="opacity:.6;clip-path:url(#homryp7xha)">
        <g data-name="그룹 7386">
            <g data-name="그룹 7385" style="clip-path:url(#0fh9u14hsb)" transform="translate(1514.609 58.612)">
                <path data-name="빼기 2" d="M16095.276 18233.166h-19.018a2.872 2.872 0 0 1-2.869-2.869v-19.041a2.872 2.872 0 0 1 2.869-2.869h19.018a2.872 2.872 0 0 1 2.869 2.869v19.041a2.872 2.872 0 0 1-2.869 2.869zm-11.485-12.775 4.116 5.908h3.409v-11.047h-3.574v5.912l-4.113-5.912h-3.414v11.047h3.574v-5.912z" transform="translate(-16073.391 -18208.389)" style="stroke:transparent;stroke-miterlimit:10;fill:#ff4713"/>
            </g>
        </g>
    </g>
</svg>
