<svg xmlns="http://www.w3.org/2000/svg" width="40" height="30" viewBox="0 0 40 30">
    <defs>
        <clipPath id="o9dc6zpdca">
            <path data-name="사각형 339668" transform="translate(1442 56)" style="stroke:#707070;fill:#ff4713" d="M0 0h40v30H0z"/>
        </clipPath>
    </defs>
    <g data-name="마스크 그룹 96" transform="translate(-1442 -56)" style="opacity:.6;clip-path:url(#o9dc6zpdca)">
        <path data-name="패스 9214" d="M0 0h30v30H0z" style="fill:none" transform="translate(1447 56)"/>
        <path data-name="패스 9215" d="M31.814 8.747A46.587 46.587 0 0 1 32.5 17a46.587 46.587 0 0 1-.686 8.253 4.217 4.217 0 0 1-2.907 3.033C26.344 29 17.5 29 17.5 29s-8.839 0-11.407-.714a4.216 4.216 0 0 1-2.907-3.033A46.587 46.587 0 0 1 2.5 17a46.587 46.587 0 0 1 .686-8.253 4.217 4.217 0 0 1 2.907-3.033C8.661 5 17.5 5 17.5 5s8.844 0 11.407.714a4.216 4.216 0 0 1 2.907 3.033zM14.5 22.25l9-5.25-9-5.25z" transform="translate(1444.5 54)" style="fill:#ff4713"/>
    </g>
</svg>
