<svg xmlns="http://www.w3.org/2000/svg" width="180" height="66" viewBox="0 0 180 66">
    <defs>
        <clipPath id="kpm9o4ypva">
            <path data-name="사각형 339371" transform="translate(58 6741.088)" style="stroke:#707070;fill:#fff" d="M0 0h180v66H0z"/>
        </clipPath>
        <clipPath id="8p43si0xhb">
            <path data-name="사각형 6" style="fill:#fff" d="M0 0h175.591v59.942H0z"/>
        </clipPath>
    </defs>
    <g data-name="마스크 그룹 25" transform="translate(-58 -6741.088)" style="clip-path:url(#kpm9o4ypva)">
        <g data-name="그룹 6366">
            <g data-name="그룹 14">
                <path data-name="패스 1" d="M51.125 127.93h-.017l-1.452-4.269h-1.922v6.209h1.278v-4.357h.017l1.522 4.357H51.6l1.522-4.4h.017v4.4h1.281v-6.21H52.5z" transform="translate(33.101 6672.286)" style="fill:#fff"/>
                <path data-name="패스 2" d="m71.892 126.113-1.452-2.452h-1.53l2.278 3.791v2.417h1.365v-2.382l2.3-3.826h-1.517z" transform="translate(20.881 6672.285)" style="fill:#fff"/>
                <g data-name="그룹 13">
                    <g data-name="그룹 12" style="clip-path:url(#8p43si0xhb)" transform="translate(60.647 6743.647)">
                        <path data-name="패스 3" d="M99.482 128.284a1.262 1.262 0 0 1-.978.383 1.593 1.593 0 0 1-.782-.178 1.493 1.493 0 0 1-.522-.474 2.055 2.055 0 0 1-.291-.666 3.154 3.154 0 0 1-.091-.76 3.4 3.4 0 0 1 .091-.791 2.1 2.1 0 0 1 .291-.683 1.469 1.469 0 0 1 .522-.478 1.593 1.593 0 0 1 .782-.178 1.424 1.424 0 0 1 .9.313 1.376 1.376 0 0 1 .3.343 1.114 1.114 0 0 1 .156.431h1.322a2.5 2.5 0 0 0-.3-.957 2.335 2.335 0 0 0-.6-.7 2.62 2.62 0 0 0-.818-.431 3.33 3.33 0 0 0-2.252.1 2.746 2.746 0 0 0-.961.7 3.1 3.1 0 0 0-.6 1.04 3.865 3.865 0 0 0-.209 1.291 3.736 3.736 0 0 0 .209 1.265 3.013 3.013 0 0 0 .6 1.022 2.752 2.752 0 0 0 .961.683 3.186 3.186 0 0 0 1.282.247 3.06 3.06 0 0 0 1.052-.174 2.437 2.437 0 0 0 .835-.5 2.531 2.531 0 0 0 .574-.8 3.157 3.157 0 0 0 .269-1.052h-1.311a1.769 1.769 0 0 1-.431 1.008" transform="translate(-55.083 -71.16)" style="fill:#fff"/>
                        <path data-name="패스 4" d="M120.093 124.259a2.752 2.752 0 0 0-.956-.7 3.4 3.4 0 0 0-2.569 0 2.747 2.747 0 0 0-.961.7 3.1 3.1 0 0 0-.6 1.039 3.88 3.88 0 0 0-.209 1.291 3.751 3.751 0 0 0 .209 1.265 3.029 3.029 0 0 0 .6 1.022 2.746 2.746 0 0 0 .961.682 3.459 3.459 0 0 0 2.569 0 2.751 2.751 0 0 0 .956-.682 3.028 3.028 0 0 0 .6-1.022 3.751 3.751 0 0 0 .209-1.265 3.88 3.88 0 0 0-.209-1.291 3.1 3.1 0 0 0-.6-1.039m-.647 3.091a2.058 2.058 0 0 1-.291.665 1.491 1.491 0 0 1-.521.474 1.805 1.805 0 0 1-1.565 0 1.489 1.489 0 0 1-.522-.474 2.058 2.058 0 0 1-.291-.665 3.178 3.178 0 0 1-.091-.761 3.416 3.416 0 0 1 .091-.791 2.1 2.1 0 0 1 .291-.683 1.47 1.47 0 0 1 .522-.478 1.809 1.809 0 0 1 1.565 0 1.473 1.473 0 0 1 .521.478 2.1 2.1 0 0 1 .291.683 3.394 3.394 0 0 1 .091.791 3.158 3.158 0 0 1-.091.761" transform="translate(-66.247 -71.16)" style="fill:#fff"/>
                        <path data-name="패스 5" d="M135.131 129.868h1.369V127.3h2.6v-1.061h-2.6v-1.435h3v-1.144h-4.365z" transform="translate(-77.981 -71.361)" style="fill:#fff"/>
                        <path data-name="패스 6" d="M151.434 129.868h1.366V127.3h2.6v-1.061h-2.6v-1.435h3v-1.144h-4.365z" transform="translate(-87.389 -71.361)" style="fill:#fff"/>
                        <path data-name="패스 7" d="M169.1 127.2h3.008v-1.061H169.1v-1.33h3.278v-1.149h-4.643v6.208h4.713v-1.147H169.1z" transform="translate(-96.798 -71.362)" style="fill:#fff"/>
                        <path data-name="패스 8" d="M186.537 127.2h3.008v-1.061h-3.008v-1.33h3.278v-1.149h-4.643v6.208h4.713v-1.147h-3.348z" transform="translate(-106.858 -71.362)" style="fill:#fff"/>
                        <path data-name="패스 9" d="M202.442 136.513h.626a.739.739 0 0 1-.035.274.774.774 0 0 1-.131.244.892.892 0 0 1-.2.186.688.688 0 0 1-.247.1v.626a1.919 1.919 0 0 0 .526-.16 1.533 1.533 0 0 0 .431-.3 1.392 1.392 0 0 0 .291-.431 1.334 1.334 0 0 0 .109-.543v-1.339h-1.365z" transform="translate(-116.824 -78.006)" style="fill:#fff"/>
                        <path data-name="패스 10" d="M226.919 124.259a2.752 2.752 0 0 0-.956-.7 3.4 3.4 0 0 0-2.569 0 2.747 2.747 0 0 0-.961.7 3.1 3.1 0 0 0-.6 1.039 3.869 3.869 0 0 0-.209 1.291 3.74 3.74 0 0 0 .209 1.265 3.021 3.021 0 0 0 .6 1.022 2.746 2.746 0 0 0 .961.682 3.459 3.459 0 0 0 2.569 0 2.751 2.751 0 0 0 .956-.682 3.029 3.029 0 0 0 .6-1.022 3.75 3.75 0 0 0 .209-1.265 3.879 3.879 0 0 0-.209-1.291 3.1 3.1 0 0 0-.6-1.039m-.647 3.091a2.058 2.058 0 0 1-.291.665 1.491 1.491 0 0 1-.521.474 1.805 1.805 0 0 1-1.565 0 1.49 1.49 0 0 1-.522-.474 2.058 2.058 0 0 1-.291-.665 3.178 3.178 0 0 1-.091-.761 3.415 3.415 0 0 1 .091-.791 2.1 2.1 0 0 1 .291-.683 1.471 1.471 0 0 1 .522-.478 1.809 1.809 0 0 1 1.565 0 1.473 1.473 0 0 1 .521.478 2.1 2.1 0 0 1 .291.683 3.392 3.392 0 0 1 .091.791 3.156 3.156 0 0 1-.091.761" transform="translate(-127.894 -71.16)" style="fill:#fff"/>
                        <path data-name="패스 11" d="M246.236 127.521a1.552 1.552 0 0 1-.278 1.021 1.279 1.279 0 0 1-1.009.326 1.571 1.571 0 0 1-.665-.117.967.967 0 0 1-.57-.735 2.8 2.8 0 0 1-.044-.5v-3.856h-1.365v3.861A2.373 2.373 0 0 0 243 129.4a3.418 3.418 0 0 0 3.9 0 2.353 2.353 0 0 0 .7-1.874v-3.866h-1.365z" transform="translate(-139.829 -71.361)" style="fill:#fff"/>
                        <path data-name="패스 12" d="M266.849 129.155c-.014-.139-.025-.275-.031-.409l-.017-.348a3.8 3.8 0 0 0-.065-.47 1.594 1.594 0 0 0-.152-.431 1.188 1.188 0 0 0-.27-.339 1.049 1.049 0 0 0-.417-.213v-.017a1.446 1.446 0 0 0 .752-.609 1.868 1.868 0 0 0 .23-.948 1.75 1.75 0 0 0-.126-.665 1.609 1.609 0 0 0-.365-.543 1.735 1.735 0 0 0-.574-.37 2 2 0 0 0-.752-.135h-3.348v6.209h1.365v-2.426h1.365a1.014 1.014 0 0 1 .739.226 1.233 1.233 0 0 1 .3.713q.052.374.078.783a2.407 2.407 0 0 0 .139.7h1.365a.918.918 0 0 1-.144-.317 2.733 2.733 0 0 1-.069-.4m-1.57-2.9a1.032 1.032 0 0 1-.7.209h-1.5v-1.748h1.5a1.05 1.05 0 0 1 .7.2.827.827 0 0 1 .235.656.866.866 0 0 1-.235.678" transform="translate(-151.029 -71.361)" style="fill:#fff"/>
                        <path data-name="패스 13" d="M287.29 124.809h1.861v5.06h1.365v-5.06h1.86v-1.148h-5.086z" transform="translate(-165.788 -71.362)" style="fill:#fff"/>
                        <path data-name="패스 14" d="m304.029 123.66-2.348 6.209h1.374l.487-1.383h2.321l.47 1.383h1.417l-2.322-6.209zm-.13 3.808.809-2.278h.017l.783 2.278z" transform="translate(-174.093 -71.361)" style="fill:#fff"/>
                        <path data-name="패스 15" d="M325.479 126.495a1.55 1.55 0 0 0 .631-.513 1.362 1.362 0 0 0 .213-.782 1.666 1.666 0 0 0-.144-.73 1.193 1.193 0 0 0-.4-.474 1.749 1.749 0 0 0-.626-.257 3.875 3.875 0 0 0-.809-.078h-2.922v6.208h3.008a3.186 3.186 0 0 0 .813-.1 2.179 2.179 0 0 0 .7-.321 1.589 1.589 0 0 0 .491-.562 1.7 1.7 0 0 0 .182-.812 1.724 1.724 0 0 0-.283-1 1.491 1.491 0 0 0-.856-.578m-2.7-1.774h1.278a2.036 2.036 0 0 1 .352.03.884.884 0 0 1 .3.109.58.58 0 0 1 .209.217.721.721 0 0 1 .078.356.658.658 0 0 1-.235.565.984.984 0 0 1-.6.174h-1.383zm2.387 3.669a.655.655 0 0 1-.222.247.932.932 0 0 1-.322.13 1.786 1.786 0 0 1-.382.039h-1.461v-1.7h1.487a1.151 1.151 0 0 1 .713.2.8.8 0 0 1 .27.683.855.855 0 0 1-.083.4" transform="translate(-185.483 -71.361)" style="fill:#fff"/>
                        <path data-name="패스 16" d="M341.369 123.66H340v6.209h4.4v-1.148h-3.026z" transform="translate(-196.208 -71.361)" style="fill:#fff"/>
                        <path data-name="패스 17" d="M357.673 128.721V127.2h3.008v-1.061h-3.008v-1.33h3.278v-1.149h-4.643v6.208h4.713v-1.147z" transform="translate(-205.616 -71.361)" style="fill:#fff"/>
                        <path data-name="패스 18" d="M13.27 30.311c1.82 0 4.228 1.057 6.811 3.054l4.4-5.637a17.391 17.391 0 0 0-11.743-4.4C6.458 23.324 1 27.082 1 33.54c0 6.342 4.991 7.868 9.336 9.219 2.114.7 3.758 1.291 3.758 3.053 0 1.526-1.115 2.231-2.7 2.231-2.76 0-6.694-1.644-8.866-2.994L0 51.919a21.781 21.781 0 0 0 11.8 3.288c7.222 0 12.037-3.464 12.037-10.04 0-6.166-4.932-7.868-9.218-9.336-2.348-.822-4.051-1.527-4.051-3.229 0-1.409 1.057-2.29 2.7-2.29" transform="translate(0 -13.46)" style="fill:#fff"/>
                        <path data-name="패스 19" d="M150.587 17.614c2.173 0 3.7 1.468 5.108 3.406l5.989-5.05c-2.994-4.756-7.281-6.106-11.508-6.106-7.046 0-14.5 4.638-14.5 16.264 0 .171.005.337.008.506a32.328 32.328 0 0 1-6.17 5.316v-.009a13.309 13.309 0 0 1-7.222 2.525 5.464 5.464 0 0 1-5.813-4.756c6.224-.352 15.383-2.173 15.383-10.628 0-6.224-4.11-9.218-10.275-9.218-9.981 0-15.089 8.22-15.089 16.734a22.54 22.54 0 0 0 .588 5.329 25.922 25.922 0 0 1-2.594 1.413 8.278 8.278 0 0 1-2.867.715c-1.879 0-2.584-1.233-2.584-3.875V0H89.23v27.691a34.271 34.271 0 0 1-5.213 4.277l-.012-.028a13.307 13.307 0 0 1-7.222 2.525 5.464 5.464 0 0 1-5.813-4.756c6.224-.352 15.383-2.173 15.383-10.628 0-6.224-4.11-9.218-10.275-9.218-9.982 0-15.09 8.22-15.09 16.734 0 8.925 4.11 15.148 14.385 15.148a20.093 20.093 0 0 0 11.189-3.276 26.713 26.713 0 0 0 3.254-2.426c.919 3.249 3.248 5.7 9.1 5.7a16.788 16.788 0 0 0 7.191-1.55 20.562 20.562 0 0 0 4.149-2.213c2.319 2.387 5.787 3.764 10.619 3.764a19.8 19.8 0 0 0 11.276-3.344v-.005a28.91 28.91 0 0 0 5.055-4.161c2.215 4.944 6.723 7.512 12.8 7.512a17.912 17.912 0 0 0 11.038-3.405l-3.464-6.634c-2.407 1.7-4.11 2.407-6.165 2.407-3.934 0-5.93-3.171-5.93-8.4 0-5.284 1.879-8.1 5.108-8.1m-75.1-.881a2.25 2.25 0 0 1 2.407 2.408c0 2.877-4.169 4.228-7.339 4.4.176-4.051 2-6.811 4.932-6.811m45.5 0a2.25 2.25 0 0 1 2.407 2.407c0 2.877-4.169 4.228-7.339 4.4.176-4.051 2-6.811 4.932-6.811" transform="translate(-35.195 .001)" style="fill:#fff"/>
                        <path data-name="패스 20" d="M317.188 34.348c-2 0-3.523-1-3.523-4.228V18.377H321V10.8h-7.339V0H303.8v30.532c0 5.52.7 11.215 10.334 11.215a16.211 16.211 0 0 0 8.4-2.172l-2.173-6.224a6.722 6.722 0 0 1-3.171 1" transform="translate(-175.316 .001)" style="fill:#fff"/>
                        <path data-name="패스 21" d="M363.128 23.323c-6.4 0-14.444 3.816-14.444 16.147 0 10.686 5.226 15.736 13.563 15.736 8.1 0 14.562-5.636 14.562-16.675 0-13.8-9.042-15.207-13.681-15.207m-.411 24.719c-3.523 0-3.993-4.58-3.993-9.688 0-4.815 1.233-7.986 3.993-7.986 2.994 0 3.992 3.054 3.992 9.042 0 5.755-1.115 8.631-3.992 8.631" transform="translate(-201.217 -13.459)" style="fill:#fff"/>
                    </g>
                </g>
            </g>
        </g>
    </g>
</svg>
