<svg xmlns="http://www.w3.org/2000/svg" width="30" height="30" viewBox="0 0 30 30">
    <defs>
        <clipPath id="vsuzytos0a">
            <path data-name="사각형 339669" transform="translate(1382 56)" style="stroke:#707070;fill:#ff4713" d="M0 0h30v30H0z"/>
        </clipPath>
    </defs>
    <g data-name="마스크 그룹 97" transform="translate(-1382 -56)" style="opacity:.6;clip-path:url(#vsuzytos0a)">
        <path data-name="패스 9216" d="M0 0h30v30H0z" style="fill:none" transform="translate(1382 56)"/>
        <path data-name="패스 9217" d="M15 2.5c3.4 0 3.82.013 5.153.075a9.209 9.209 0 0 1 3.035.581A6.094 6.094 0 0 1 25.4 4.6a6.135 6.135 0 0 1 1.441 2.215 9.234 9.234 0 0 1 .581 3.035c.062 1.33.078 1.75.078 5.15s-.013 3.82-.075 5.153a9.241 9.241 0 0 1-.581 3.035 6.382 6.382 0 0 1-3.656 3.656 9.234 9.234 0 0 1-3.035.581c-1.333.059-1.753.075-5.153.075s-3.82-.013-5.153-.075a9.241 9.241 0 0 1-3.035-.581 6.382 6.382 0 0 1-3.656-3.656 9.2 9.2 0 0 1-.581-3.035C2.516 18.82 2.5 18.4 2.5 15s.013-3.82.075-5.153a9.2 9.2 0 0 1 .581-3.035A6.1 6.1 0 0 1 4.6 4.6a6.121 6.121 0 0 1 2.213-1.444 9.2 9.2 0 0 1 3.035-.581C11.18 2.516 11.6 2.5 15 2.5zm0 6.25A6.25 6.25 0 1 0 21.25 15 6.25 6.25 0 0 0 15 8.75zm8.125-.312A1.563 1.563 0 1 0 21.563 10a1.563 1.563 0 0 0 1.562-1.562zM15 11.25A3.75 3.75 0 1 1 11.25 15 3.75 3.75 0 0 1 15 11.25z" style="fill:#ff4713" transform="translate(1382 56)"/>
    </g>
</svg>
