<svg xmlns="http://www.w3.org/2000/svg" width="36" height="36" viewBox="0 0 36 36">
    <defs>
        <clipPath id="837q4lep1a">
            <path data-name="사각형 339376" transform="translate(0 .074)" style="stroke:#707070;fill:#fff" d="M0 0h36v36H0z"/>
        </clipPath>
        <clipPath id="04nkn6ic9b">
            <path data-name="사각형 339375" style="fill:#fff" d="M0 0h29.767v29.793H0z"/>
        </clipPath>
    </defs>
    <g data-name="마스크 그룹 28" transform="translate(0 -.074)" style="opacity:.6;clip-path:url(#837q4lep1a)">
        <g data-name="그룹 6373">
            <g data-name="그룹 6372" style="clip-path:url(#04nkn6ic9b)" transform="translate(3.138 3.14)">
                <path data-name="사각형 339374" d="M2.867 0H26.9a2.868 2.868 0 0 1 2.868 2.868v24.057a2.868 2.868 0 0 1-2.868 2.868H2.868A2.868 2.868 0 0 1 0 26.925V2.867A2.867 2.867 0 0 1 2.867 0z" style="fill:#fff"/>
                <path data-name="패스 8652" d="m28.337 26.5-4.949-7.111h-4.1v13.289h4.3v-7.111l4.949 7.111h4.1V19.392h-4.3z" transform="translate(-11.077 -11.139)" style="fill:#ff4713"/>
            </g>
        </g>
    </g>
</svg>
