<svg xmlns="http://www.w3.org/2000/svg" width="410" height="124" viewBox="0 0 410 124">
    <defs>
        <clipPath id="1ieq2vyp3a">
            <path data-name="사각형 339536" transform="translate(805 2424)" style="stroke:#707070;fill:#ff4713" d="M0 0h410v124H0z"/>
        </clipPath>
        <clipPath id="apk6rymteb">
            <path data-name="사각형 339534" style="fill:#ff4713" d="M0 0h395.176v123.303H0z"/>
        </clipPath>
    </defs>
    <g data-name="마스크 그룹 72" transform="translate(-805 -2424)" style="clip-path:url(#1ieq2vyp3a)">
        <g data-name="그룹 7313">
            <path data-name="패스 8986" d="m17.043 1.115 10.969 32.247h.131L38.519 1.115h14.515v46.893H43.38V14.773h-.131L31.754 48.008h-7.946L12.315 15.1h-.133V48H2.528V1.115z" style="fill:#ff4713" transform="translate(812 2424)"/>
            <path data-name="패스 8987" d="M57.7 1.115h11.555l10.969 18.522 10.9-18.522h11.493l-17.4 28.9v18H74.9V29.748z" style="fill:#ff4713" transform="translate(812 2424)"/>
            <g data-name="그룹 7312">
                <g data-name="그룹 7311" style="clip-path:url(#apk6rymteb)" transform="translate(812 2424)">
                    <path data-name="패스 8988" d="M149.644 13.625a10.417 10.417 0 0 0-2.3-2.593 10.757 10.757 0 0 0-6.765-2.365 12.067 12.067 0 0 0-5.911 1.347 11.173 11.173 0 0 0-3.94 3.611 15.8 15.8 0 0 0-2.2 5.159 25.564 25.564 0 0 0-.69 5.973 23.837 23.837 0 0 0 .69 5.75 15.485 15.485 0 0 0 2.2 5.022 11.233 11.233 0 0 0 3.94 3.578 12.034 12.034 0 0 0 5.911 1.35 9.546 9.546 0 0 0 7.39-2.892 13.366 13.366 0 0 0 3.25-7.618h9.981a23.874 23.874 0 0 1-2.036 7.947 19.037 19.037 0 0 1-4.335 6.043 18.452 18.452 0 0 1-6.305 3.809 23.092 23.092 0 0 1-7.947 1.314 24.073 24.073 0 0 1-9.687-1.871 20.777 20.777 0 0 1-7.257-5.157 22.857 22.857 0 0 1-4.533-7.716 28.347 28.347 0 0 1-1.575-9.559 29.326 29.326 0 0 1 1.575-9.752 23.51 23.51 0 0 1 4.533-7.849 20.734 20.734 0 0 1 7.26-5.256 25.179 25.179 0 0 1 17.007-.785 19.849 19.849 0 0 1 6.172 3.252 17.542 17.542 0 0 1 4.5 5.287 18.915 18.915 0 0 1 2.232 7.223h-9.982a8.444 8.444 0 0 0-1.182-3.252" style="fill:#ff4713"/>
                    <path data-name="패스 8989" d="M168.426 15.005a23.515 23.515 0 0 1 4.533-7.85 20.763 20.763 0 0 1 7.258-5.255 25.716 25.716 0 0 1 19.407 0 20.844 20.844 0 0 1 7.224 5.254 23.476 23.476 0 0 1 4.531 7.85 29.271 29.271 0 0 1 1.577 9.752 28.3 28.3 0 0 1-1.577 9.559 22.83 22.83 0 0 1-4.531 7.716 20.844 20.844 0 0 1-7.224 5.156 26.085 26.085 0 0 1-19.407 0 20.766 20.766 0 0 1-7.258-5.156 22.867 22.867 0 0 1-4.533-7.716 28.371 28.371 0 0 1-1.575-9.559 29.348 29.348 0 0 1 1.575-9.752m9.426 15.5a15.486 15.486 0 0 0 2.2 5.022 11.243 11.243 0 0 0 3.94 3.578 13.618 13.618 0 0 0 11.823 0 11.269 11.269 0 0 0 3.94-3.578 15.508 15.508 0 0 0 2.2-5.022 23.888 23.888 0 0 0 .69-5.75 25.619 25.619 0 0 0-.69-5.973 15.825 15.825 0 0 0-2.2-5.159 11.19 11.19 0 0 0-3.94-3.611 13.645 13.645 0 0 0-11.823 0 11.164 11.164 0 0 0-3.94 3.611 15.8 15.8 0 0 0-2.2 5.159 25.618 25.618 0 0 0-.69 5.973 23.888 23.888 0 0 0 .69 5.75" style="fill:#ff4713"/>
                    <path data-name="패스 8990" d="M252.3 1.115v8.667h-22.66v10.839h19.637v8.012H229.64v19.375h-10.313V1.115z" style="fill:#ff4713"/>
                    <path data-name="패스 8991" d="M291.9 1.115v8.667h-22.658v10.839h19.637v8.012h-19.637v19.375h-10.313V1.115z" style="fill:#ff4713"/>
                    <path data-name="패스 8992" d="M333.6 1.115v8.667h-24.76v10.05h22.723v8.015h-22.719v11.491h25.285v8.67h-35.6V1.115z" style="fill:#ff4713"/>
                    <path data-name="패스 8993" d="M376.819 1.115v8.667h-24.76v10.05h22.723v8.015h-22.723v11.491h25.286v8.67h-35.6V1.115z" style="fill:#ff4713"/>
                    <path data-name="패스 8994" d="M394.748 37.894v10.114a10.133 10.133 0 0 1-.821 4.1 10.572 10.572 0 0 1-2.2 3.252 11.539 11.539 0 0 1-3.252 2.264 14.416 14.416 0 0 1-3.974 1.216v-4.73a5.2 5.2 0 0 0 1.873-.786 6.828 6.828 0 0 0 1.543-1.411 5.789 5.789 0 0 0 .985-1.841 5.574 5.574 0 0 0 .263-2.069h-4.729V37.894z" style="fill:#ff4713"/>
                    <path data-name="패스 8995" d="M1.575 89.248A23.514 23.514 0 0 1 6.108 81.4a20.739 20.739 0 0 1 7.258-5.253 23.735 23.735 0 0 1 9.686-1.9 23.69 23.69 0 0 1 9.721 1.9A20.838 20.838 0 0 1 40 81.4a23.476 23.476 0 0 1 4.531 7.85A29.3 29.3 0 0 1 46.1 99a28.322 28.322 0 0 1-1.577 9.559A22.829 22.829 0 0 1 40 116.275a20.854 20.854 0 0 1-7.224 5.156 24 24 0 0 1-9.721 1.872 24.048 24.048 0 0 1-9.686-1.872 20.757 20.757 0 0 1-7.258-5.156 22.867 22.867 0 0 1-4.533-7.716A28.346 28.346 0 0 1 0 99a29.322 29.322 0 0 1 1.575-9.752M11 104.75a15.486 15.486 0 0 0 2.2 5.022 11.28 11.28 0 0 0 3.94 3.581 12.034 12.034 0 0 0 5.911 1.347 12.038 12.038 0 0 0 5.912-1.347 11.306 11.306 0 0 0 3.94-3.581 15.507 15.507 0 0 0 2.2-5.022 23.888 23.888 0 0 0 .69-5.75 25.618 25.618 0 0 0-.69-5.973 15.825 15.825 0 0 0-2.2-5.159 11.2 11.2 0 0 0-3.94-3.611 12.071 12.071 0 0 0-5.912-1.347 12.067 12.067 0 0 0-5.911 1.347 11.174 11.174 0 0 0-3.94 3.611 15.8 15.8 0 0 0-2.2 5.159A25.618 25.618 0 0 0 10.311 99a23.888 23.888 0 0 0 .69 5.75" style="fill:#ff4713"/>
                    <path data-name="패스 8996" d="M89.584 118.671q-5.32 4.631-14.713 4.632-9.522 0-14.743-4.6t-5.222-14.185v-29.16h10.311v29.161a21.183 21.183 0 0 0 .329 3.745 7.286 7.286 0 0 0 4.3 5.549 11.875 11.875 0 0 0 5.023.887q5.517 0 7.62-2.465t2.1-7.716V75.358H94.9v29.161q0 9.523-5.319 14.152" style="fill:#ff4713"/>
                    <path data-name="패스 8997" d="M131.025 75.359a15.113 15.113 0 0 1 5.682 1.018 13.08 13.08 0 0 1 4.335 2.791 12.14 12.14 0 0 1 2.758 4.105 13.182 13.182 0 0 1 .952 5.025 14.107 14.107 0 0 1-1.74 7.158 10.962 10.962 0 0 1-5.682 4.6v.128a7.941 7.941 0 0 1 3.153 1.612 8.86 8.86 0 0 1 2.035 2.56 11.971 11.971 0 0 1 1.151 3.251 28.632 28.632 0 0 1 .492 3.547q.064 1.118.131 2.627t.23 3.087a20.427 20.427 0 0 0 .526 2.987 6.87 6.87 0 0 0 1.083 2.4H135.82a18.152 18.152 0 0 1-1.051-5.321q-.2-3.087-.591-5.909a9.321 9.321 0 0 0-2.233-5.384q-1.709-1.711-5.582-1.71h-10.311v18.324H105.74V75.359zm-3.678 21.213A7.8 7.8 0 0 0 132.668 95q1.773-1.577 1.773-5.123 0-3.417-1.773-4.96a7.933 7.933 0 0 0-5.321-1.542h-11.295v13.2z" style="fill:#ff4713"/>
                    <path data-name="패스 8998" d="M165.11 84.026v-8.667h38.421v8.667h-14.054v38.226h-10.311V84.026z" style="fill:#ff4713"/>
                    <path data-name="패스 8999" d="m228.226 75.359 17.536 46.893h-10.706l-3.547-10.444h-17.534l-3.675 10.444h-10.381l17.732-46.893zm.591 28.767-5.911-17.209h-.131l-6.108 17.209z" style="fill:#ff4713"/>
                    <path data-name="패스 9000" d="M273.871 75.359a29.076 29.076 0 0 1 6.108.591 13.2 13.2 0 0 1 4.728 1.935 9.027 9.027 0 0 1 3.055 3.581 12.592 12.592 0 0 1 1.083 5.516 10.271 10.271 0 0 1-1.609 5.912 11.68 11.68 0 0 1-4.761 3.876 11.261 11.261 0 0 1 6.468 4.367 14.334 14.334 0 0 1 .757 13.663 11.957 11.957 0 0 1-3.711 4.236 16.36 16.36 0 0 1-5.32 2.429 23.919 23.919 0 0 1-6.141.789H251.8V75.359zm-.723 38.881a13.92 13.92 0 0 0 2.891-.295 7.11 7.11 0 0 0 2.429-.987 4.952 4.952 0 0 0 1.676-1.871 6.457 6.457 0 0 0 .623-3.021q0-3.609-2.036-5.156a8.692 8.692 0 0 0-5.386-1.545h-11.23v12.875zm-.591-19.9a7.413 7.413 0 0 0 4.532-1.311 4.965 4.965 0 0 0 1.773-4.272 5.429 5.429 0 0 0-.591-2.69 4.391 4.391 0 0 0-1.576-1.643 6.594 6.594 0 0 0-2.265-.82 15.081 15.081 0 0 0-2.661-.231h-9.654v10.965z" style="fill:#ff4713"/>
                    <path data-name="패스 9001" d="M310.322 75.359v38.224h22.855v8.669H300.01V75.359z" style="fill:#ff4713"/>
                    <path data-name="패스 9002" d="M376 75.359v8.667h-24.76v10.05h22.723v8.015h-22.724v11.492h25.286v8.669h-35.6V75.359z" style="fill:#ff4713"/>
                    <path data-name="사각형 339533" transform="translate(384.864 112.138)" style="fill:#ff4713" d="M0 0h10.312v10.114H0z"/>
                </g>
            </g>
        </g>
    </g>
</svg>
