<svg xmlns="http://www.w3.org/2000/svg" width="36" height="36" viewBox="0 0 36 36">
    <defs>
        <clipPath id="g5meotz52a">
            <path data-name="사각형 339372" transform="translate(-.318 .074)" style="stroke:#707070;fill:#fff" d="M0 0h36v36H0z"/>
        </clipPath>
    </defs>
    <g data-name="마스크 그룹 26" transform="translate(.318 -.074)" style="opacity:.6;clip-path:url(#g5meotz52a)">
        <path data-name="패스 8648" d="M0 0h36.074v36.074H0z" style="fill:none"/>
        <path data-name="패스 8649" d="M17.531 2.5c4.084 0 4.593.015 6.2.09a11.073 11.073 0 0 1 3.649.7 7.328 7.328 0 0 1 2.663 1.733 7.377 7.377 0 0 1 1.733 2.663 11.1 11.1 0 0 1 .7 3.649c.071 1.6.09 2.112.09 6.2s-.015 4.593-.09 6.2a11.112 11.112 0 0 1-.7 3.649 7.674 7.674 0 0 1-4.4 4.4 11.1 11.1 0 0 1-3.649.7c-1.6.071-2.112.09-6.2.09s-4.593-.015-6.2-.09a11.112 11.112 0 0 1-3.649-.7 7.674 7.674 0 0 1-4.4-4.4 11.065 11.065 0 0 1-.7-3.649c-.071-1.6-.09-2.112-.09-6.2s.015-4.593.09-6.2a11.065 11.065 0 0 1 .7-3.649 7.335 7.335 0 0 1 1.744-2.664 7.361 7.361 0 0 1 2.664-1.733 11.065 11.065 0 0 1 3.649-.7c1.602-.069 2.112-.089 6.196-.089zm0 7.515a7.515 7.515 0 1 0 7.515 7.515 7.515 7.515 0 0 0-7.515-7.515zM27.3 9.64a1.879 1.879 0 1 0-1.879 1.879A1.879 1.879 0 0 0 27.3 9.64zm-9.77 3.382a4.509 4.509 0 1 1-4.509 4.509 4.509 4.509 0 0 1 4.51-4.51z" transform="translate(.506 .506)" style="fill:#fff"/>
    </g>
</svg>
